<svg width="103" height="98" viewBox="0 0 103 98" fill="none" xmlns="http://www.w3.org/2000/svg">
<g filter="url(#filter0_d_1_61)">
<path d="M18.8913 32.7275C23.323 29.2838 26.9995 31.6588 31.9063 37.3398C32.4573 37.981 33.1983 37.2305 33.621 36.8648C34.039 36.4943 40.5133 30.666 40.8315 30.4C41.145 30.1198 41.525 29.5973 41.0263 29.013C39.8249 27.5269 38.6483 26.021 37.497 24.4958C28.909 13.262 60.9905 5.643 56.0648 5.52425C53.5568 5.45775 43.4963 5.339 41.9905 5.50525C35.8963 6.1465 28.244 11.8418 24.3918 14.497C19.352 17.9455 17.471 19.969 17.1623 20.2493C15.7373 21.4938 16.9343 24.3675 14.3503 26.6333C11.619 29.0225 9.91376 27.2128 8.33201 28.5998C7.54826 29.2933 5.35376 30.9367 4.72676 31.483C4.09501 32.0387 3.98101 32.9745 4.62701 33.7203C4.62701 33.7203 10.631 40.3513 11.1345 40.9403C11.6333 41.5198 12.9918 42.0232 13.8278 41.2775C14.6685 40.5365 16.8298 38.6508 17.1908 38.3183C17.5613 38.0048 16.9533 34.2285 18.8913 32.7275V32.7275ZM46.0043 35.1833C45.4343 34.523 44.7265 34.504 44.1185 35.0455L37.307 40.9925C37.044 41.2311 36.8838 41.5624 36.8599 41.9166C36.8359 42.2709 36.9503 42.6207 37.1788 42.8925L76.5753 87.7278C77.4968 88.787 79.0928 88.8962 80.1425 87.9795L84.75 84.1177C85.2572 83.6712 85.5676 83.0425 85.6138 82.3683C85.6601 81.6941 85.4384 81.0289 84.997 80.5173L46.0043 35.1833ZM98.5345 16.1025C98.183 13.756 96.967 14.2453 96.3353 15.238C95.7035 16.2403 92.9105 20.4725 91.761 22.3915C90.621 24.2915 87.809 28.0488 82.5745 24.339C77.1215 20.4868 79.0168 17.7983 79.9668 15.9885C80.9215 14.1693 83.8523 9.06775 84.275 8.436C84.6978 7.79475 84.2038 5.93275 82.5128 6.71175C80.817 7.49075 70.5285 11.5805 69.1035 17.4468C67.6453 23.4128 70.3243 28.747 65.066 34.0433L58.6868 40.6933L65.0945 48.1318L72.951 40.6742C74.8225 38.7932 78.822 36.9645 82.4415 37.791C90.1983 39.5438 94.4305 36.632 96.9813 31.8155C99.2708 27.512 98.8908 18.449 98.5345 16.1025V16.1025ZM17.0103 81.0017C16.5351 81.4804 16.2685 82.1275 16.2685 82.802C16.2685 83.4765 16.5351 84.1236 17.0103 84.6023L21.5275 89.0197C22.5155 90.0125 24.083 89.5945 25.071 88.6018L48.3793 65.6878L41.24 57.5462L17.0103 81.0017V81.0017Z" fill="black"/>
</g>
<defs>
<filter id="filter0_d_1_61" x="0" y="0" width="103" height="103" filterUnits="userSpaceOnUse" color-interpolation-filters="sRGB">
<feFlood flood-opacity="0" result="BackgroundImageFix"/>
<feColorMatrix in="SourceAlpha" type="matrix" values="0 0 0 0 0 0 0 0 0 0 0 0 0 0 0 0 0 0 127 0" result="hardAlpha"/>
<feOffset dy="4"/>
<feGaussianBlur stdDeviation="2"/>
<feComposite in2="hardAlpha" operator="out"/>
<feColorMatrix type="matrix" values="0 0 0 0 0 0 0 0 0 0 0 0 0 0 0 0 0 0 0.25 0"/>
<feBlend mode="normal" in2="BackgroundImageFix" result="effect1_dropShadow_1_61"/>
<feBlend mode="normal" in="SourceGraphic" in2="effect1_dropShadow_1_61" result="shape"/>
</filter>
</defs>
</svg>
